Coordinates
version=1
nRows=22
nColumns=24
inDegrees=yes

Units are S.I. units (second, meters, Newtons, ...)
Angles are in degrees.

endheader
time	pelvis_tilt	pelvis_list	pelvis_rotation	pelvis_tx	pelvis_ty	pelvis_tz	hip_flexion_r	hip_adduction_r	hip_rotation_r	knee_angle_r	ankle_angle_r	subtalar_angle_r	mtp_angle_r	hip_flexion_l	hip_adduction_l	hip_rotation_l	knee_angle_l	ankle_angle_l	subtalar_angle_l	mtp_angle_l	lumbar_extension	lumbar_bending	lumbar_rotation
      4.24500000	     -6.89980539	     -8.32650009	      5.03981804	     -0.79486202	     -0.01606609	      0.59697718	     14.22516061	      9.74356172	    -13.27517115	    -13.83926791	      1.43035084	     -3.88837494	      3.90385788	     27.63216074	    -13.93090836	     -5.38004681	    -67.31745924	    -11.04103023	     22.50741416	     23.53039620	      4.04208643	      8.76495446	     -0.67274990
      4.25000000	     -6.88903326	     -8.06698068	      4.62134395	     -0.78865958	     -0.01511045	      0.59760970	     13.42582354	      9.69148124	    -12.81953472	    -13.25629574	      1.56328606	     -3.63547864	      4.00861246	     28.24437493	    -13.69773987	     -5.84010820	    -66.86963041	    -10.75351461	     22.74637840	     23.53474291	      3.94496194	      8.53093007	     -0.10890373
      4.25500000	     -6.87507096	     -7.80536088	      4.19381018	     -0.78247573	     -0.01422494	      0.59823855	     12.63474694	      9.62629254	    -12.34009063	    -12.69084717	      1.69069033	     -3.41025038	      4.09339315	     28.83142324	    -13.47131508	     -6.31868895	    -66.35671209	    -10.45919479	     22.91342013	     23.45578072	      3.84595751	      8.29928208	      0.46248162
      4.26000000	     -6.86064223	     -7.54508772	      3.75690349	     -0.77630604	     -0.01341857	      0.59887431	     11.85628338	      9.55195851	    -11.84264255	    -12.14560656	      1.81791917	     -3.21279829	      4.15584054	     29.39666959	    -13.25684856	     -6.81122596	    -65.78202194	    -10.15562276	     23.02348999	     23.28654914	      3.74850507	      8.07012529	      1.03673523
      4.26500000	     -6.85449192	     -7.28996481	      3.31359392	     -0.77014923	     -0.01269818	      0.59952472	     11.10078113	      9.47080118	    -11.34055648	    -11.62001245	      1.94138553	     -3.02740593	      4.19460593	     29.95066498	    -13.05671390	     -7.31040955	    -65.14550014	     -9.84410843	     23.08452626	     23.03569100	      3.66224924	      7.84520287	      1.60256571
      4.27000000	     -6.84937777	     -7.03905921	      2.86432270	     -0.76401086	     -0.01205951	      0.60017242	     10.36069945	      9.38175216	    -10.82980326	    -11.11556489	      2.06647930	     -2.86130157	      4.21018944	     30.48573322	    -12.86839731	     -7.81578832	    -64.45065927	     -9.52271337	     23.08995851	     22.68537055	      3.57889042	      7.62823838	      2.17181675
      4.27500000	     -6.85605725	     -6.79444973	      2.40948586	     -0.75788458	     -0.01151725	      0.60081763	      9.64805635	      9.28516545	    -10.32163052	    -10.63291091	      2.20252338	     -2.69432019	      4.21215502	     31.01324531	    -12.69392022	     -8.32477129	    -63.69617952	     -9.19808230	     23.05040108	     22.27023497	      3.51361067	      7.41734441	      2.72656229
      4.28000000	     -6.86530522	     -6.55559478	      1.95251164	     -0.75176330	     -0.01105936	      0.60149416	      8.95289854	      9.18459204	     -9.81873019	    -10.17256939	      2.33934110	     -2.53614176	      4.20033095	     31.52185739	    -12.53392144	     -8.83289773	    -62.88364791	     -8.86572967	     22.96492062	     21.77024077	      3.45177562	      7.20725402	      3.28346417
      4.28500000	     -6.88687085	     -6.32875458	      1.50055142	     -0.74564060	     -0.01070127	      0.60210484	      8.28505081	      9.07751882	     -9.32697141	     -9.73374113	      2.50452683	     -2.37378899	      4.19203472	     32.02389836	    -12.38113786	     -9.32899786	    -62.00862096	     -8.54017183	     22.83150753	     21.24024676	      3.41561456	      7.02514148	      3.80915229
      4.29000000	     -6.83509498	     -6.14514812	      1.05796412	     -0.73953909	     -0.01038570	      0.60278702	      7.53238237	      9.01983632	     -8.78872006	     -9.27301522	      2.61721206	     -2.30254920	      4.11055262	     32.43937468	    -12.28991934	     -9.79039178	    -61.13080065	     -8.05995152	     22.86982322	     20.19545584	      3.29010113	      6.87039069	      4.34198104
      4.29500000	     -6.93357338	     -5.91856285	      0.63375724	     -0.73348145	     -0.01025668	      0.60335047	      6.99355236	      8.87772982	     -8.39696491	     -8.89615605	      2.79748094	     -2.11333767	      4.13747199	     32.99399226	    -12.11511815	    -10.25257489	    -60.12171083	     -7.80811012	     22.54109171	     19.75910238	      3.33779742	      6.67990738	      4.82868012
      4.30000000	     -6.96396289	     -5.70446419	      0.17768743	     -0.72739996	     -0.01013960	      0.60397372	      6.38262059	      8.74817149	     -7.95042022	     -8.52456984	      2.98250805	     -1.92909194	      4.16664514	     33.42725297	    -11.99039969	    -10.74466682	    -59.05073568	     -7.49412098	     22.32627944	     19.17984118	      3.31132993	      6.50544123	      5.36290237
      4.30500000	     -6.91831807	     -5.54298035	     -0.25022129	     -0.72130327	     -0.01007373	      0.60459160	      5.67938487	      8.66895435	     -7.47082545	     -8.12904579	      3.15429988	     -1.81650582	      4.18403057	     33.77245054	    -11.91500124	    -11.17639869	    -57.97733964	     -7.03469115	     22.29326055	     18.12137083	      3.20845073	      6.37923769	      5.85359448
      4.31000000	     -7.01299911	     -5.35403584	     -0.62677223	     -0.71525524	     -0.01017832	      0.60506558	      5.17444452	      8.53258873	     -7.13956765	     -7.80194115	      3.33799628	     -1.67747606	      4.22658443	     34.25681583	    -11.75267007	    -11.56365042	    -56.77909148	     -6.79389667	     21.94260281	     17.60072629	      3.26459218	      6.22929664	      6.28830369
      4.31500000	     -7.04077149	     -5.17655803	     -1.03052119	     -0.70918392	     -0.01030151	      0.60559217	      4.59768708	      8.40500854	     -6.75228600	     -7.48049340	      3.54438298	     -1.52623798	      4.28753833	     34.62294985	    -11.63250119	    -11.97664995	    -55.52464944	     -6.49540617	     21.71850296	     16.96459740	      3.24771901	      6.09027530	      6.75516377
      4.32000000	     -7.06058977	     -5.01674893	     -1.39874000	     -0.70311177	     -0.01050073	      0.60604823	      4.02099719	      8.28240904	     -6.38703871	     -7.16867444	      3.75303660	     -1.40307052	      4.35071468	     34.96441643	    -11.50521295	    -12.34254655	    -54.21579308	     -6.19450925	     21.51809796	     16.26691019	      3.22787200	      5.96821660	      7.17962675
      4.32500000	     -7.00161288	     -4.91594048	     -1.73970756	     -0.69703132	     -0.01076263	      0.60646558	      3.35016925	      8.21262156	     -5.99891475	     -6.84024962	      3.97316654	     -1.31352668	      4.44406234	     35.21711300	    -11.42820987	    -12.65197443	    -52.91770840	     -5.74464618	     21.51683140	     15.12834973	      3.12100044	      5.90732647	      7.57709227
      4.33000000	     -7.05362578	     -4.79059462	     -2.05947702	     -0.69098386	     -0.01113452	      0.60679746	      2.83981992	      8.10318332	     -5.69942315	     -6.57621147	      4.18399575	     -1.19921456	      4.50814071	     35.55858476	    -11.29198673	    -12.92984422	    -51.48936032	     -5.51543512	     21.34323395	     14.48996846	      3.13615156	      5.82649950	      7.97861672
      4.33500000	     -7.11801817	     -4.65259595	     -2.32728802	     -0.68484728	     -0.01162046	      0.60709185	      2.34315939	      7.97466620	     -5.43261040	     -6.31990054	      4.44761730	     -1.12516509	      4.55403837	     35.88349372	    -11.11216565	    -13.16939133	    -49.98696905	     -5.29543532	     21.19033623	     13.99521058	      3.19164820	      5.71456829	      8.26756659
      4.34000000	     -7.02861602	     -4.56650978	     -2.61458022	     -0.67875098	     -0.01204694	      0.60734643	      1.67750132	      7.88577566	     -5.10645524	     -6.05922690	      4.69840059	     -1.03920360	      4.62178917	     36.01827630	    -10.99921834	    -13.40361430	    -48.49509072	     -4.90161647	     21.28624041	     12.96799401	      3.05688788	      5.67161250	      8.63066385
      4.34500000	     -7.13385980	     -4.46545297	     -2.84279117	     -0.67265634	     -0.01269967	      0.60750855	      1.26404911	      7.77846180	     -4.87460669	     -5.86975989	      4.95969212	     -0.97349466	      4.65793796	     36.35035756	    -10.81050830	    -13.52802972	    -46.87764495	     -4.76353487	     21.22841894	     12.58130117	      3.14875126	      5.60680312	      8.88218682
      4.35000000	     -7.04616349	     -4.36565170	     -3.12661541	     -0.66655562	     -0.01321030	      0.60767877	      0.63269492	      7.65408124	     -4.56752818	     -5.66712119	      5.22988511	     -0.85669812	      4.70339324	     36.41879210	    -10.66698097	    -13.75466920	    -45.24582867	     -4.49889851	     21.29994527	     11.79405955	      3.01605533	      5.55151021	      9.28058815
